<svg width="88" height="88" viewBox="0 0 88 88" fill="none" xmlns="http://www.w3.org/2000/svg">
<g filter="url(#filter0_d_131_673)">
<rect x="19" y="11" width="50" height="50" rx="25" fill="#3C1E42" shape-rendering="crispEdges"/>
<path d="M51.1666 46.013L51.4283 45.2209L51.0649 45.1008L50.7366 45.2993L51.1666 46.013ZM54.4999 42.6778L53.7983 42.2275L53.5833 42.5644L53.7099 42.9413L54.4999 42.6778ZM56.1666 47.664L55.9049 48.4578C56.0519 48.5064 56.2094 48.5132 56.36 48.4773C56.5105 48.4413 56.6481 48.3641 56.7573 48.2544C56.8665 48.1446 56.943 48.0066 56.9782 47.8558C57.0134 47.705 57.0059 47.5473 56.9566 47.4005L56.1666 47.664ZM50.7366 45.2993C49.1433 46.2582 46.5949 46.8319 44.5 46.8319V48.4995C46.8083 48.4995 49.6766 47.8825 51.5966 46.7268L50.7366 45.2993ZM44.5 46.8302C38.5166 46.8302 33.6667 41.9807 33.6667 35.9972H32C32.0004 37.6393 32.3241 39.2652 32.9525 40.782C33.5809 42.2989 34.5018 43.6771 35.6625 44.8379C36.8233 45.9986 38.2011 46.9193 39.7174 47.5473C41.2338 48.1753 42.8589 48.4983 44.5 48.4978V46.8302ZM33.6667 35.9972C33.668 33.1236 34.81 30.3698 36.8416 28.3386C38.8732 26.3073 41.628 25.1667 44.5 25.1676V23.5C41.1859 23.4991 38.0073 24.8154 35.6631 27.1594C33.319 29.5033 32.0013 32.6813 32 35.9972H33.6667ZM44.5 25.1676C50.4833 25.1676 55.3332 30.0171 55.3332 35.9989H56.9999C56.9986 32.683 55.6809 29.5033 53.3368 27.1594C50.9926 24.8154 47.814 23.4991 44.5 23.5V25.1676ZM55.3332 35.9989C55.3332 38.2185 54.8399 40.5982 53.7983 42.2275L55.2016 43.128C56.4766 41.1352 56.9999 38.4036 56.9999 35.9989H55.3332ZM50.9049 46.8052L55.9049 48.4578L56.4282 46.8735L51.4283 45.2226L50.9049 46.8052ZM56.9566 47.4005L55.2899 42.4143L53.7099 42.9413L55.3766 47.9292L56.9566 47.4005Z" fill="#FFF0F0"/>
<g filter="url(#filter1_d_131_673)">
<rect x="25" y="36" width="17" height="17" rx="8.5" fill="#3C1E42" shape-rendering="crispEdges"/>
<path d="M37.75 42.75H35.25V40.25C35.25 39.9185 35.1183 39.6005 34.8839 39.3661C34.6495 39.1317 34.3315 39 34 39C33.6685 39 33.3505 39.1317 33.1161 39.3661C32.8817 39.6005 32.75 39.9185 32.75 40.25L32.7944 42.75H30.25C29.9185 42.75 29.6005 42.8817 29.3661 43.1161C29.1317 43.3505 29 43.6685 29 44C29 44.3315 29.1317 44.6495 29.3661 44.8839C29.6005 45.1183 29.9185 45.25 30.25 45.25L32.7944 45.2056L32.75 47.75C32.75 48.0815 32.8817 48.3995 33.1161 48.6339C33.3505 48.8683 33.6685 49 34 49C34.3315 49 34.6495 48.8683 34.8839 48.6339C35.1183 48.3995 35.25 48.0815 35.25 47.75V45.2056L37.75 45.25C38.0815 45.25 38.3995 45.1183 38.6339 44.8839C38.8683 44.6495 39 44.3315 39 44C39 43.6685 38.8683 43.3505 38.6339 43.1161C38.3995 42.8817 38.0815 42.75 37.75 42.75Z" fill="#FFF0F0"/>
</g>
</g>
<defs>
<filter id="filter0_d_131_673" x="0" y="0" width="88" height="88" filterUnits="userSpaceOnUse" color-interpolation-filters="sRGB">
<feFlood flood-opacity="0" result="BackgroundImageFix"/>
<feColorMatrix in="SourceAlpha" type="matrix" values="0 0 0 0 0 0 0 0 0 0 0 0 0 0 0 0 0 0 127 0" result="hardAlpha"/>
<feOffset dy="8"/>
<feGaussianBlur stdDeviation="9.5"/>
<feComposite in2="hardAlpha" operator="out"/>
<feColorMatrix type="matrix" values="0 0 0 0 0.0509804 0 0 0 0 0.431373 0 0 0 0 0.992157 0 0 0 0.17 0"/>
<feBlend mode="normal" in2="BackgroundImageFix" result="effect1_dropShadow_131_673"/>
<feBlend mode="normal" in="SourceGraphic" in2="effect1_dropShadow_131_673" result="shape"/>
</filter>
<filter id="filter1_d_131_673" x="6" y="25" width="55" height="55" filterUnits="userSpaceOnUse" color-interpolation-filters="sRGB">
<feFlood flood-opacity="0" result="BackgroundImageFix"/>
<feColorMatrix in="SourceAlpha" type="matrix" values="0 0 0 0 0 0 0 0 0 0 0 0 0 0 0 0 0 0 127 0" result="hardAlpha"/>
<feOffset dy="8"/>
<feGaussianBlur stdDeviation="9.5"/>
<feComposite in2="hardAlpha" operator="out"/>
<feColorMatrix type="matrix" values="0 0 0 0 0.0509804 0 0 0 0 0.431373 0 0 0 0 0.992157 0 0 0 0.17 0"/>
<feBlend mode="normal" in2="BackgroundImageFix" result="effect1_dropShadow_131_673"/>
<feBlend mode="normal" in="SourceGraphic" in2="effect1_dropShadow_131_673" result="shape"/>
</filter>
</defs>
</svg>
